<?xml version="1.0" encoding="UTF-8" standalone="no"?>
<!DOCTYPE svg PUBLIC "-//W3C//DTD SVG 1.1//EN" "http://www.w3.org/Graphics/SVG/1.1/DTD/svg11.dtd">
<svg width="100%" height="100%" viewBox="0 0 3000 2000" version="1.1" xmlns="http://www.w3.org/2000/svg" xmlns:xlink="http://www.w3.org/1999/xlink" xml:space="preserve" xmlns:serif="http://www.serif.com/" style="fill-rule:evenodd;clip-rule:evenodd;stroke-linejoin:round;stroke-miterlimit:2;">
    <g transform="matrix(1,0,0,1,-189.532,-6378.3)">
        <g id="Artboard2" transform="matrix(1.89124,0,0,0.73423,4242.31,7585.33)">
            <rect x="-2142.92" y="-1643.94" width="1586.26" height="2723.94" style="fill:none;"/>
            <g transform="matrix(1,0,0,1,-31.8726,1.81899e-12)">
                <g transform="matrix(0.326265,0,0,0.840397,-1967.79,-4819.41)">
                    <text x="792.864px" y="5738.12px" style="font-family:'JetBrainsMono-Regular', 'JetBrains Mono', monospace;font-size:1232.6px;">zones</text>
                </g>
                <g transform="matrix(0.00014769,-1.0195,0.395799,0.000380423,-4904.18,296.967)">
                    <path d="M1231.57,7557.25C1231.57,7294.79 1018.8,7082.02 756.34,7082.02C493.875,7082.02 281.105,7294.79 281.105,7557.25L376.152,7557.25C376.152,7347.28 546.368,7177.07 756.34,7177.07C966.311,7177.07 1136.53,7347.28 1136.53,7557.25L1231.57,7557.25Z"/>
                </g>
                <g transform="matrix(-7.27242e-17,1.0195,-0.395799,-1.87205e-16,1078.3,-863.782)">
                    <path d="M1231.57,7557.25C1231.57,7294.79 1018.8,7082.02 756.34,7082.02C493.875,7082.02 281.105,7294.79 281.105,7557.25L376.152,7557.25C376.152,7347.28 546.368,7177.07 756.34,7177.07C966.311,7177.07 1136.53,7347.28 1136.53,7557.25L1231.57,7557.25Z"/>
                </g>
            </g>
        </g>
    </g>
</svg>
