<svg xmlns="http://www.w3.org/2000/svg" xml:space="preserve" fill-rule="evenodd" stroke-linejoin="round" stroke-miterlimit="2" clip-rule="evenodd" viewBox="0 0 2959 990"><g transform="matrix(1.0618 0 0 .6366 -125 -60)"><path fill="none" d="M118 95h2786v1554H118z"/><clipPath id="a"><path d="M118 95h2786v1554H118z"/></clipPath><g fill="#fff" clip-path="url(#a)"><path fill-rule="nonzero" d="M881 1201v-108l220-452H886v-98h288v108l-225 452h232v98H881Zm580 9c-47 0-85-23-113-69s-42-111-42-194V797c0-84 14-149 42-194 27-46 65-69 113-69s85 23 113 69c28 45 41 110 41 194v150c0 83-13 148-41 194s-66 69-113 69Zm0-95c28 0 50-14 66-40s24-65 24-116V785c0-51-8-90-24-116a74 74 0 0 0-66-40c-28 0-50 14-66 40s-24 65-24 116v174c0 51 8 90 24 116s38 40 66 40Zm281 86V543h64v126h1c3-44 14-78 32-102s42-36 72-36c40 0 71 21 95 61 23 41 35 96 35 166v443h-65V778c0-51-7-89-22-116-15-26-36-40-61-40-27 0-48 14-64 42-15 28-23 67-23 118v419h-64Zm578 12c-46 0-83-24-112-70-28-47-42-111-42-193V794c0-82 14-146 42-193 29-46 66-70 112-70 31 0 58 11 82 32 23 20 41 49 54 87 13 37 19 81 19 132v117h-246v63c0 48 8 87 25 115 16 28 39 42 66 42 24 0 44-7 59-23 16-16 25-36 29-63h64c-4 55-20 99-48 131s-62 49-104 49Zm-91-397h183v-34c0-51-8-91-24-120-16-28-39-42-68-42s-51 14-67 42c-16 29-24 69-24 120v34Zm505 394c-44 0-78-16-102-49-24-34-36-80-36-141h65c0 30 6 54 19 71s31 26 54 26h32c24 0 42-9 55-26 13-18 20-43 20-74 0-57-15-89-47-96l-108-26c-27-7-48-25-63-56s-22-71-22-121c0-58 12-103 36-135 23-33 56-49 97-49h32c38 0 69 16 93 47 24 32 37 73 39 124h-65c-1-23-7-43-20-58a58 58 0 0 0-47-22h-32c-22 0-39 8-51 25-13 16-19 39-19 68 0 46 13 72 38 79l102 24c67 16 100 81 100 196 0 61-12 108-36 142s-58 51-102 51h-32Z"/><path d="M453 95c-185 0-335 250-335 558 0 309 150 559 335 560v-112c-148 0-268-201-268-448 0-246 120-447 268-446V95Zm0 1554c185 0 335-250 335-559 0-308-150-559-335-559v112c148 0 268 200 268 447s-120 447-268 447v112Z"/></g></g></svg>