<?xml version="1.0" encoding="UTF-8" standalone="no"?>
<!DOCTYPE svg PUBLIC "-//W3C//DTD SVG 1.1//EN" "http://www.w3.org/Graphics/SVG/1.1/DTD/svg11.dtd">
<svg width="100%" height="100%" viewBox="0 0 3000 1000" version="1.1" xmlns="http://www.w3.org/2000/svg" xmlns:xlink="http://www.w3.org/1999/xlink" xml:space="preserve" xmlns:serif="http://www.serif.com/" style="fill-rule:evenodd;clip-rule:evenodd;stroke-linejoin:round;stroke-miterlimit:2;">
    <g id="zones_light" transform="matrix(0.956086,0,0,0.679254,-47.894,-152.246)">
        <rect x="50.094" y="224.136" width="3137.79" height="1472.2" style="fill:none;"/>
        <g transform="matrix(0.653626,0,0,0.918016,835.222,1271.31)">
            <path d="M110.934,0L110.934,-110.934L490.575,-576.857L120.795,-576.857L120.795,-677.93L615.067,-677.93L615.067,-566.996L228.031,-101.073L628.626,-101.073L628.626,0L110.934,0Z" style="fill:white;fill-rule:nonzero;"/>
            <path d="M1109.34,9.861C1027.17,9.861 962.455,-13.353 915.205,-59.781C867.956,-106.209 844.331,-169.277 844.331,-248.985L844.331,-428.945C844.331,-509.475 867.956,-572.748 915.205,-618.765C962.455,-664.782 1027.17,-687.791 1109.34,-687.791C1191.51,-687.791 1256.23,-664.782 1303.47,-618.765C1350.72,-572.748 1374.35,-509.886 1374.35,-430.177L1374.35,-248.985C1374.35,-169.277 1350.72,-106.209 1303.47,-59.781C1256.23,-13.353 1191.51,9.861 1109.34,9.861ZM1109.34,-88.747C1157.82,-88.747 1195.62,-102.306 1222.74,-129.423C1249.86,-156.54 1263.41,-196.394 1263.41,-248.985L1263.41,-428.945C1263.41,-481.536 1249.86,-521.39 1222.74,-548.507C1195.62,-575.624 1157.82,-589.183 1109.34,-589.183C1061.68,-589.183 1024.09,-575.624 996.557,-548.507C969.029,-521.39 955.265,-481.536 955.265,-428.945L955.265,-248.985C955.265,-196.394 969.029,-156.54 996.557,-129.423C1024.09,-102.306 1061.68,-88.747 1109.34,-88.747Z" style="fill:white;fill-rule:nonzero;"/>
            <path d="M1592.52,0L1592.52,-677.93L1703.45,-677.93L1703.45,-548.507L1704.69,-548.507C1710.44,-593.702 1728.93,-628.626 1760.15,-653.278C1791.38,-677.93 1832.88,-690.256 1884.64,-690.256C1952.85,-690.256 2007.08,-669.302 2047.35,-627.393C2087.61,-585.485 2107.75,-528.375 2107.75,-456.062L2107.75,0L1996.81,0L1996.81,-443.736C1996.81,-492.218 1983.87,-529.402 1957.99,-555.286C1932.1,-581.171 1896.97,-594.113 1852.6,-594.113C1806.58,-594.113 1770.22,-580.144 1743.51,-552.205C1716.81,-524.266 1703.45,-484.001 1703.45,-431.41L1703.45,0L1592.52,0Z" style="fill:white;fill-rule:nonzero;"/>
            <path d="M2588.46,12.326C2535.05,12.326 2488.41,1.643 2448.56,-19.722C2408.71,-41.087 2377.89,-71.285 2356.12,-110.318C2334.34,-149.35 2323.45,-194.751 2323.45,-246.52L2323.45,-431.41C2323.45,-484.001 2334.34,-529.607 2356.12,-568.229C2377.89,-606.85 2408.71,-636.843 2448.56,-658.208C2488.41,-679.573 2535.05,-690.256 2588.46,-690.256C2641.87,-690.256 2688.51,-679.573 2728.36,-658.208C2768.21,-636.843 2799.03,-606.85 2820.8,-568.229C2842.58,-529.607 2853.47,-484.001 2853.47,-431.41L2853.47,-311.848L2431.92,-311.848L2431.92,-246.52C2431.92,-193.107 2445.48,-152.226 2472.6,-123.876C2499.71,-95.527 2538.33,-81.352 2588.46,-81.352C2631.19,-81.352 2665.7,-88.953 2692,-104.155C2718.29,-119.357 2734.32,-142.16 2740.07,-172.564L2851,-172.564C2843.61,-115.864 2815.88,-70.875 2767.8,-37.594C2719.73,-4.314 2659.95,12.326 2588.46,12.326ZM2431.92,-395.665L2745,-395.665L2745,-431.41C2745,-484.823 2731.65,-525.909 2704.94,-554.67C2678.23,-583.431 2639.41,-597.811 2588.46,-597.811C2538.33,-597.811 2499.71,-583.431 2472.6,-554.67C2445.48,-525.909 2431.92,-484.823 2431.92,-431.41L2431.92,-395.665Z" style="fill:white;fill-rule:nonzero;"/>
            <path d="M3307.07,9.861C3237.22,9.861 3180.11,-6.163 3135.73,-38.211C3091.36,-70.258 3069.17,-114.221 3069.17,-170.099L3182.57,-170.099C3182.57,-144.625 3194.69,-124.698 3218.93,-110.318C3243.18,-95.937 3273.38,-88.747 3309.53,-88.747L3361.3,-88.747C3404.85,-88.747 3437.31,-97.581 3458.68,-115.248C3480.04,-132.915 3490.72,-156.54 3490.72,-186.123C3490.72,-214.883 3480.66,-237.686 3460.52,-254.532C3440.39,-271.377 3411.43,-282.676 3373.63,-288.428L3282.41,-303.22C3215.03,-314.724 3165.32,-336.089 3133.27,-367.315C3101.22,-398.541 3085.2,-441.682 3085.2,-496.738C3085.2,-558.368 3105.12,-605.617 3144.98,-638.487C3184.83,-671.356 3242.15,-687.791 3316.93,-687.791L3363.76,-687.791C3432.79,-687.791 3488.05,-672.383 3529.55,-641.568C3571.05,-610.753 3591.8,-569.872 3591.8,-518.925L3478.4,-518.925C3478.4,-540.29 3467.92,-557.341 3446.97,-570.078C3426.01,-582.814 3397.46,-589.183 3361.3,-589.183L3314.46,-589.183C3275.84,-589.183 3246.05,-581.171 3225.1,-565.147C3204.14,-549.123 3193.67,-526.32 3193.67,-496.738C3193.67,-447.434 3228.59,-417.03 3298.44,-405.525L3389.65,-390.734C3462.78,-379.23 3515.99,-357.865 3549.27,-326.639C3582.55,-295.413 3599.19,-250.218 3599.19,-191.053C3599.19,-128.601 3579.26,-79.503 3539.41,-43.757C3499.56,-8.012 3439.37,9.861 3358.84,9.861L3307.07,9.861Z" style="fill:white;fill-rule:nonzero;"/>
        </g>
        <g transform="matrix(0.000295876,-1.11366,0.792928,0.000415559,-5565.66,1592.55)">
            <path d="M1231.57,7557.25C1231.57,7294.79 1018.8,7082.02 756.34,7082.02C493.875,7082.02 281.105,7294.79 281.105,7557.25L376.152,7557.25C376.152,7347.28 546.368,7177.07 756.34,7177.07C966.311,7177.07 1136.53,7347.28 1136.53,7557.25L1231.57,7557.25Z" style="fill:white;"/>
        </g>
        <g transform="matrix(-1.45693e-16,1.11366,-0.792928,-2.04495e-16,6419.4,324.592)">
            <path d="M1231.57,7557.25C1231.57,7294.79 1018.8,7082.02 756.34,7082.02C493.875,7082.02 281.105,7294.79 281.105,7557.25L376.152,7557.25C376.152,7347.28 546.368,7177.07 756.34,7177.07C966.311,7177.07 1136.53,7347.28 1136.53,7557.25L1231.57,7557.25Z" style="fill:white;"/>
        </g>
    </g>
</svg>
